<?xml version="1.0" standalone="no"?>
<!DOCTYPE svg PUBLIC "-//W3C//DTD SVG 20010904//EN"
 "http://www.w3.org/TR/2001/REC-SVG-20010904/DTD/svg10.dtd">
<svg version="1.0" xmlns="http://www.w3.org/2000/svg"
 width="460.000000pt" height="460.000000pt" viewBox="0 0 460.000000 460.000000"
 preserveAspectRatio="xMidYMid meet">
<metadata>
Created by potrace 1.14, written by Peter Selinger 2001-2017
</metadata>
<g transform="translate(0.000000,460.000000) scale(0.100000,-0.100000)"
fill="#000000" stroke="none">
<path d="M2118 4595 c-1 -2 -32 -6 -68 -9 -36 -3 -76 -8 -90 -11 -14 -3 -38
-7 -55 -9 -139 -20 -356 -86 -535 -164 -105 -46 -272 -134 -290 -152 -3 -3
-25 -18 -50 -34 -58 -37 -194 -140 -245 -186 -55 -49 -225 -223 -252 -257 -19
-25 -45 -57 -73 -90 -5 -7 -10 -15 -10 -18 0 -3 -11 -18 -25 -33 -14 -15 -25
-32 -25 -39 0 -7 -4 -13 -10 -13 -5 0 -10 -7 -10 -15 0 -8 -4 -15 -10 -15 -5
0 -10 -7 -10 -15 0 -8 -4 -15 -9 -15 -5 0 -11 -8 -14 -17 -4 -10 -18 -38 -33
-63 -95 -160 -198 -415 -239 -595 -1 -5 -5 -21 -8 -35 -7 -25 -9 -35 -28 -150
-31 -184 -33 -534 -5 -690 3 -14 7 -41 10 -60 5 -31 12 -70 32 -160 3 -14 9
-38 14 -55 5 -16 19 -61 31 -100 12 -38 26 -76 32 -82 5 -7 7 -13 4 -13 -7 0
52 -138 103 -240 37 -75 144 -256 160 -270 3 -3 17 -23 32 -45 27 -39 38 -52
115 -145 66 -78 285 -290 300 -290 2 0 14 -9 26 -21 24 -22 212 -151 237 -162
8 -4 31 -17 50 -29 56 -34 185 -96 263 -127 40 -15 81 -32 92 -36 11 -4 25 -9
30 -11 151 -48 306 -86 410 -100 113 -15 160 -18 320 -18 190 -1 288 6 415 29
64 11 204 46 275 67 39 12 72 22 75 23 3 1 19 7 35 14 17 6 50 19 75 29 25 9
75 31 113 49 37 18 70 33 72 33 3 0 28 14 57 31 133 79 174 104 183 111 6 4
50 37 98 73 49 36 107 82 130 103 78 70 227 223 227 232 0 6 3 10 8 10 16 0
203 261 250 350 140 261 209 449 267 736 3 11 7 40 10 65 3 24 8 55 11 69 17
80 11 485 -10 600 -3 14 -7 43 -11 65 -27 182 -100 405 -201 610 -40 83 -79
159 -86 170 -92 141 -118 179 -162 235 -90 117 -210 242 -331 345 -93 80 -300
221 -394 269 -30 16 -62 32 -70 37 -21 11 -136 62 -181 79 -19 7 -39 17 -45
22 -5 4 -19 8 -30 8 -12 0 -25 3 -29 7 -3 4 -13 8 -21 9 -8 1 -38 9 -67 18
-29 9 -66 21 -83 26 -33 9 -169 37 -225 45 -19 3 -53 7 -75 11 -44 6 -441 15
-447 9z"/>
</g>
</svg>
